<svg width="219" height="40" viewBox="0 0 219 40" fill="none" xmlns="http://www.w3.org/2000/svg">
<path d="M2.62722 5.90934C2.87239 5.67734 3.19528 5.3633 3.45385 5.13884C4.22824 4.52018 4.32872 4.43908 5.03344 3.98168C5.24244 3.86097 5.4903 3.71574 5.7328 3.57899C3.94421 4.64467 3.71645 5.82446 5.35766 6.55346C5.35498 6.55346 5.35498 6.55346 5.35498 6.55535C7.65 7.52861 12.6795 7.3183 16.6479 6.07155C20.4917 4.86441 21.9105 3.13763 20.0134 2.11156C18.348 1.89182 16.3625 1.86636 14.2618 2.0644L14.0434 1.81071L14.2242 1.3901C15.4595 1.31182 16.6331 1.33069 17.646 1.45234C17.8912 1.48158 18.2141 1.53156 18.4552 1.5674C18.9215 1.64756 19.1747 1.69566 19.4788 1.7645C19.7896 1.82958 20.0549 1.89465 20.5171 2.01536C20.97 2.14079 21.1656 2.19738 21.5287 2.32469C21.9352 2.45528 22.3303 2.60298 22.7117 2.767C25.7342 4.10523 23.8545 6.54686 18.5209 8.21989C13.202 9.88725 6.42412 10.1494 3.38686 8.82723C3.38552 8.82534 3.3815 8.82346 3.37347 8.82157H3.37882C1.72019 8.0822 1.54602 7.00897 2.62722 5.90934ZM16.4657 15.2647L16.4228 13.7614L14.9048 12.5731C9.89009 13.3729 4.96109 13.2012 2.21993 12.0648C2.21055 12.0573 2.18777 12.0497 2.17839 12.0422C0.626943 11.3698 0.243769 10.5021 0.360329 9.55906C-0.00274786 10.9388 -0.0322227 11.4367 0.0200282 12.6175C0.084337 13.3568 0.691252 14.0387 1.91178 14.5762L1.92116 14.5838C4.84319 15.8626 10.9311 16.1399 16.4657 15.2647ZM22.7961 16.9858C15.7181 18.9842 6.85954 19.1021 3.01173 17.2527C3.42727 17.9675 3.99268 18.6345 4.68912 19.2313C8.22074 20.9288 16.3518 20.8204 22.8456 18.9861C26.6466 17.9138 29.0447 16.4869 29.6744 15.1496L29.8513 14.7469C30.2706 13.7265 30.3497 12.8768 30.4167 12.1205C30.3403 13.7624 27.5924 15.6297 22.7961 16.9858ZM7.17171 20.8345C7.39411 20.9835 8.09346 21.588 11.6371 22.2558C12.5951 22.4048 15.0067 22.8829 19.4614 22.1878L19.4882 21.9021L19.1358 21.5135C15.0026 22.202 10.4113 21.9719 7.17171 20.8345ZM17.3995 8.94323L21.1629 10.951C21.1629 10.951 21.9681 11.3594 21.2084 11.6461C20.4515 11.93 18.5075 12.625 18.5075 12.625L16.5876 12.1205L15.6243 12.4223L17.3231 13.4606L17.3365 15.0761L18.3346 14.7639L18.9965 13.3993C18.9965 13.3993 21.0289 12.8485 21.8355 12.641C22.646 12.4383 22.5375 13.1324 22.5375 13.1324L22.1382 16.4435L23.4646 16.0286L25.6484 11.5612C25.6484 11.5612 26.806 11.1651 27.6206 10.8171C28.4338 10.4691 28.7125 9.89197 28.7125 9.89197C28.7125 9.89197 27.9193 9.65148 27.0056 9.84481C26.0919 10.0363 24.9008 10.3777 24.9008 10.3777L18.7218 8.53016L17.3995 8.94323ZM9.43725 2.59064L11.9922 4.02318L12.6902 3.94962L11.2995 2.6642C11.2995 2.6642 10.9967 2.39825 11.404 2.33507C11.814 2.27094 12.851 2.12193 12.851 2.12193L13.6307 2.56046L14.1559 2.50576L13.5611 1.83995L13.8746 1.10152L13.3668 1.15339L12.7652 1.71546C12.7652 1.71546 11.7095 1.78525 11.2942 1.80977C10.8762 1.8324 11.0557 1.51647 11.0557 1.51647L11.8569 0L11.1548 0.0726172L9.30595 1.96727C9.30595 1.96727 8.68966 2.04648 8.24352 2.13608C7.79604 2.22473 7.56024 2.46804 7.56024 2.46804C7.56024 2.46804 7.88848 2.65477 8.3507 2.64817C8.81694 2.64157 9.43725 2.59064 9.43725 2.59064ZM22.0646 20.9977L20.4113 20.3894L20.0308 20.4828L21.0102 21.0995C21.0102 21.0995 21.2192 21.225 20.9994 21.2919C20.7797 21.3579 20.2197 21.5201 20.2197 21.5201L19.7575 21.3749L19.4828 21.4447L19.8673 21.7333L19.8298 22.1548L20.1165 22.0851L20.3309 21.7427C20.3309 21.7427 20.9124 21.6211 21.1441 21.5777C21.3746 21.5333 21.3223 21.7239 21.3223 21.7239L21.1039 22.6339L21.4858 22.5406L22.2347 21.3372C22.2347 21.3372 22.5656 21.2457 22.8028 21.1618C23.0399 21.0778 23.1337 20.9232 23.1337 20.9232C23.1337 20.9232 22.9233 20.8421 22.6634 20.8826C22.4022 20.9213 22.0646 20.9977 22.0646 20.9977Z" fill="white"/>
<path d="M47.444 19.2783V37.9983H42.196V19.2783H36.788L37.3 15.3423H52.564L52.052 19.2783H47.444ZM58.507 24.2383C58.827 23.1076 59.3603 22.2116 60.107 21.5503C60.8537 20.8889 61.7177 20.5583 62.699 20.5583C63.7017 20.5583 64.6083 20.7609 65.419 21.1663L64.299 25.0383C63.6377 24.8463 63.0723 24.7503 62.603 24.7503C61.771 24.7503 61.0137 25.0596 60.331 25.6783C59.6697 26.2969 59.339 27.2036 59.339 28.3983V37.9983H54.443V25.9343L54.091 21.1983L57.803 20.7183L58.379 24.2383H58.507ZM73.9905 26.3503C73.9905 25.6463 73.8412 25.1343 73.5425 24.8143C73.2438 24.4729 72.6678 24.3023 71.8145 24.3023C70.9612 24.3023 69.5532 24.6116 67.5905 25.2303L66.2145 22.2223C66.9398 21.8169 67.9425 21.4436 69.2225 21.1023C70.5238 20.7396 71.7932 20.5583 73.0305 20.5583C74.2892 20.5583 75.3345 20.7076 76.1665 21.0063C77.0198 21.3049 77.6278 21.7529 77.9905 22.3503C78.3745 22.9263 78.6198 23.5023 78.7265 24.0783C78.8545 24.6543 78.9185 25.3796 78.9185 26.2543V32.2703C78.9185 33.0596 78.9932 33.6996 79.1425 34.1903C79.3132 34.6809 79.6652 35.2143 80.1985 35.7903L77.4145 38.3823C76.9238 38.1476 76.4438 37.7956 75.9745 37.3263C75.5265 36.8569 75.1958 36.4196 74.9825 36.0143H74.8545C73.6172 37.5929 72.0492 38.3823 70.1505 38.3823C67.0785 38.3823 65.5425 36.7929 65.5425 33.6143C65.5425 31.9289 66.0225 30.6703 66.9825 29.8383C67.9638 29.0063 69.3718 28.4303 71.2065 28.1103L73.9905 27.6303V26.3503ZM70.1825 33.1023C70.1825 34.1476 70.7372 34.6703 71.8465 34.6703C72.6998 34.6703 73.4252 34.3716 74.0225 33.7743V30.7663C72.6572 30.9583 71.6758 31.2249 71.0785 31.5663C70.4812 31.8863 70.1825 32.3983 70.1825 33.1023ZM90.2608 20.6863L94.7408 21.1983L90.5168 37.9983H84.7888L80.3407 21.1663L85.0768 20.6863L87.6048 33.6463H87.7968L90.2608 20.6863ZM103.485 20.5583C105.618 20.5583 107.186 21.1449 108.189 22.3183C109.021 23.2783 109.533 24.8783 109.725 27.1183C109.789 28.0143 109.821 29.1343 109.821 30.4783L107.549 30.7983H100.957C100.957 32.0569 101.191 33.0063 101.661 33.6463C102.13 34.2649 102.962 34.5743 104.157 34.5743C105.373 34.5743 106.834 34.2649 108.541 33.6463L109.533 36.6543C107.506 37.8063 105.394 38.3823 103.197 38.3823C98.2258 38.3823 95.7405 35.4383 95.7405 29.5503C95.7405 26.7769 96.3805 24.5903 97.6605 22.9903C98.9618 21.3689 100.903 20.5583 103.485 20.5583ZM104.573 25.1023C104.359 24.6116 103.879 24.3663 103.133 24.3663C102.386 24.3663 101.853 24.6436 101.533 25.1983C101.213 25.7316 101.031 26.5423 100.989 27.6303H104.893C104.893 26.4143 104.786 25.5716 104.573 25.1023ZM117.056 32.1423C117.056 33.1876 117.12 33.9556 117.248 34.4463C117.398 34.9369 117.75 35.5236 118.304 36.2063L114.784 38.7983C113.76 37.7103 113.056 36.7609 112.672 35.9503C112.31 35.1183 112.128 33.8809 112.128 32.2383V14.3823L117.056 13.8383V32.1423ZM127.394 15.3423H135.586C138.509 15.3423 140.525 16.0356 141.634 17.4223C142.594 18.6596 143.074 20.2383 143.074 22.1583C143.074 24.1423 142.487 25.8809 141.314 27.3743C140.695 28.1849 139.757 28.8356 138.498 29.3263C137.261 29.7956 135.767 30.0303 134.018 30.0303H132.642V37.9983H127.394V15.3423ZM132.642 18.9263V26.2543H134.37C135.458 26.2543 136.237 25.9663 136.706 25.3903C137.197 24.8143 137.442 23.9076 137.442 22.6703C137.442 21.4116 137.239 20.4729 136.834 19.8543C136.429 19.2356 135.607 18.9263 134.37 18.9263H132.642ZM152.677 20.5583C153.851 20.5583 154.875 20.7396 155.749 21.1023C156.624 21.4649 157.307 21.9343 157.797 22.5103C158.309 23.0649 158.715 23.7583 159.013 24.5903C159.504 25.9556 159.749 27.6303 159.749 29.6143C159.749 32.6649 158.896 34.9796 157.189 36.5583C155.888 37.7743 154.096 38.3823 151.813 38.3823C150.64 38.3823 149.616 38.2009 148.741 37.8383C147.867 37.4756 147.173 37.0169 146.661 36.4623C146.171 35.8863 145.765 35.1823 145.445 34.3503C144.955 33.0276 144.709 31.3529 144.709 29.3263C144.709 27.4489 145.083 25.7956 145.829 24.3663C147.131 21.8276 149.413 20.5583 152.677 20.5583ZM154.533 29.5503C154.533 27.6089 154.384 26.2649 154.085 25.5183C153.787 24.7503 153.147 24.3663 152.165 24.3663C151.205 24.3663 150.587 24.7289 150.309 25.4543C150.053 26.1796 149.925 27.5023 149.925 29.4223C149.925 31.3423 150.075 32.6863 150.373 33.4543C150.672 34.2009 151.312 34.5743 152.293 34.5743C153.275 34.5743 153.893 34.2223 154.149 33.5183C154.405 32.7929 154.533 31.4703 154.533 29.5503ZM166.32 24.2383C166.64 23.1076 167.173 22.2116 167.92 21.5503C168.666 20.8889 169.53 20.5583 170.512 20.5583C171.514 20.5583 172.421 20.7609 173.232 21.1663L172.112 25.0383C171.45 24.8463 170.885 24.7503 170.416 24.7503C169.584 24.7503 168.826 25.0596 168.144 25.6783C167.482 26.2969 167.152 27.2036 167.152 28.3983V37.9983H162.256V25.9343L161.904 21.1983L165.616 20.7183L166.192 24.2383H166.32ZM180.139 20.8143H184.459L183.883 24.3663H180.139V31.6943C180.139 32.7823 180.288 33.5396 180.587 33.9663C180.886 34.3929 181.398 34.6063 182.123 34.6063C182.422 34.6063 183.03 34.4996 183.947 34.2863L184.811 37.1343C184.406 37.4543 183.744 37.7423 182.827 37.9983C181.931 38.2543 181.11 38.3823 180.363 38.3823C178.251 38.3823 176.864 37.8489 176.203 36.7823C175.563 35.6943 175.243 33.9236 175.243 31.4703V24.3663H172.779L173.227 21.1663L175.339 20.8783L175.531 17.6783L180.139 16.3023V20.8143ZM193.834 26.3503C193.834 25.6463 193.685 25.1343 193.386 24.8143C193.088 24.4729 192.512 24.3023 191.658 24.3023C190.805 24.3023 189.397 24.6116 187.434 25.2303L186.058 22.2223C186.784 21.8169 187.786 21.4436 189.066 21.1023C190.368 20.7396 191.637 20.5583 192.874 20.5583C194.133 20.5583 195.178 20.7076 196.01 21.0063C196.864 21.3049 197.472 21.7529 197.834 22.3503C198.218 22.9263 198.464 23.5023 198.57 24.0783C198.698 24.6543 198.762 25.3796 198.762 26.2543V32.2703C198.762 33.0596 198.837 33.6996 198.986 34.1903C199.157 34.6809 199.509 35.2143 200.042 35.7903L197.258 38.3823C196.768 38.1476 196.288 37.7956 195.818 37.3263C195.37 36.8569 195.04 36.4196 194.826 36.0143H194.698C193.461 37.5929 191.893 38.3823 189.994 38.3823C186.922 38.3823 185.386 36.7929 185.386 33.6143C185.386 31.9289 185.866 30.6703 186.826 29.8383C187.808 29.0063 189.216 28.4303 191.05 28.1103L193.834 27.6303V26.3503ZM190.026 33.1023C190.026 34.1476 190.581 34.6703 191.69 34.6703C192.544 34.6703 193.269 34.3716 193.866 33.7743V30.7663C192.501 30.9583 191.52 31.2249 190.922 31.5663C190.325 31.8863 190.026 32.3983 190.026 33.1023ZM206.713 32.1423C206.713 33.1876 206.777 33.9556 206.905 34.4463C207.054 34.9369 207.406 35.5236 207.961 36.2063L204.441 38.7983C203.417 37.7103 202.713 36.7609 202.329 35.9503C201.966 35.1183 201.785 33.8809 201.785 32.2383V14.3823L206.713 13.8383V32.1423Z" fill="white"/>
</svg>
